<svg width="254" height="253" viewBox="0 0 254 253" fill="none" xmlns="http://www.w3.org/2000/svg">
<path d="M2.43574 81.5701C5.53446 37.4134 41.6288 2.81158 85.877 1.57935V1.57935L116.674 0H138.489L166.424 1.57935V1.57935C212.293 1.57935 250.186 37.3842 252.783 83.1794L254 104.632L253.88 116.279V138.193V160.699V160.699C255.713 210.628 215.733 252.103 165.77 252.103H158.33H87.6538V252.103C43.2844 252.103 6.36311 218.008 2.83705 173.779L0 138.193V116.279L2.43574 81.5701Z" fill="url(#paint0_linear)"/>
<path fill-rule="evenodd" clip-rule="evenodd" d="M138.213 123.646H69L76 97.9268H138.213C164.511 97.9268 185.829 119.245 185.829 145.543C185.829 171.84 164.511 193.158 138.213 193.158H104.848V167.439H138.213C150.306 167.439 160.11 157.636 160.11 145.543C160.11 133.45 150.306 123.646 138.213 123.646Z" fill="url(#paint1_linear)"/>
<path fill-rule="evenodd" clip-rule="evenodd" d="M152.286 84.7195C145.355 84.7195 139.251 89.2803 137.287 95.9264L113.349 176.912C110.529 186.454 120.313 192.808 129 193.15C112.5 192.5 80.5184 199.762 88.6845 169.622L112.622 88.636C117.817 71.0607 133.959 59 152.286 59H179.999L173.664 84.7195H152.286Z" fill="#FEA23E"/>
<path fill-rule="evenodd" clip-rule="evenodd" d="M102.274 123.646L109.876 97.9268H136.696L129.093 123.646H102.274ZM127.787 192.972C128.132 192.931 128.48 192.877 128.829 192.811C128.48 192.811 128.133 192.812 127.787 192.814V192.972Z" fill="#2B0C9F"/>
<defs>
<linearGradient id="paint0_linear" x1="3.869e-07" y1="33.6138" x2="207.681" y2="287.77" gradientUnits="userSpaceOnUse">
<stop stop-color="#260175"/>
<stop offset="1" stop-color="#3322F3"/>
</linearGradient>
<linearGradient id="paint1_linear" x1="127.494" y1="117" x2="152.629" y2="226.237" gradientUnits="userSpaceOnUse">
<stop stop-color="#FEA23E"/>
<stop offset="1" stop-color="#D6B402" stop-opacity="0.07"/>
</linearGradient>
</defs>
</svg>
