<svg width="254" height="254" viewBox="0 0 254 254" fill="none" xmlns="http://www.w3.org/2000/svg">
<path d="M247 127C247 193.274 193.274 247 127 247C60.7258 247 7 193.274 7 127C7 60.7258 60.7258 7 127 7C193.274 7 247 60.7258 247 127Z" fill="url(#paint0_linear)"/>
<path fill-rule="evenodd" clip-rule="evenodd" d="M127 14C64.5918 14 14 64.5918 14 127C14 189.408 64.5918 240 127 240C189.408 240 240 189.408 240 127C240 64.5918 189.408 14 127 14ZM0 127C0 56.8598 56.8598 0 127 0C197.14 0 254 56.8598 254 127C254 197.14 197.14 254 127 254C56.8598 254 0 197.14 0 127Z" fill="#FEA23E"/>
<path fill-rule="evenodd" clip-rule="evenodd" d="M128.213 125.646H59L66 99.9268H128.213C154.511 99.9268 175.829 121.245 175.829 147.543C175.829 173.84 154.511 195.158 128.213 195.158H94.8476V169.439H128.213C140.306 169.439 150.11 159.636 150.11 147.543C150.11 135.45 140.306 125.646 128.213 125.646Z" fill="url(#paint1_linear)"/>
<path fill-rule="evenodd" clip-rule="evenodd" d="M142.286 86.7195C135.355 86.7195 129.251 91.2803 127.287 97.9264L103.349 178.912C100.529 188.454 110.313 194.808 119 195.15C102.5 194.5 70.5184 201.762 78.6845 171.622L102.622 90.636C107.817 73.0607 123.959 61 142.286 61H169.999L163.664 86.7195H142.286Z" fill="#FEA23E"/>
<path fill-rule="evenodd" clip-rule="evenodd" d="M92.2739 125.646L99.8761 99.9268H126.696L119.093 125.646H92.2739ZM117.787 194.972C118.132 194.931 118.48 194.877 118.829 194.811C118.48 194.811 118.133 194.812 117.787 194.814V194.972Z" fill="#2B0C9F"/>
<defs>
<linearGradient id="paint0_linear" x1="7" y1="39" x2="205" y2="279.5" gradientUnits="userSpaceOnUse">
<stop stop-color="#260175"/>
<stop offset="1" stop-color="#3322F3"/>
</linearGradient>
<linearGradient id="paint1_linear" x1="117.494" y1="119" x2="142.629" y2="228.237" gradientUnits="userSpaceOnUse">
<stop stop-color="#FEA23E"/>
<stop offset="1" stop-color="#D6B402" stop-opacity="0.07"/>
</linearGradient>
</defs>
</svg>
